# xmcd
#
# Track frame offsets:
#	151
#	7074
#	14929
#	19948
#	26081
#	32606
#	39177
#	44626
#	52261
#	58174
#	65711
#	73044
#	82393
#	90768
#	98259
#	107250
#	114071
#	121648
#	128543
#	137524
#	145237
#
# Disc length: 2103 seconds
#
# Revision: 1
# Processed by: cddbd v1.5.2PL0 Copyright (c) Steve Scherf et al.
# Submitted via: audiograbber 1.81.02
#
DISCID=18083515
DTITLE=Unknown Hinson - 21 Chart-Toppers
DYEAR=1994
DGENRE=Country
TTITLE0=You Ain't Callin' The Law
TTITLE1=I'll Soon Get My Revenge
TTITLE2=Get The Hell On
TTITLE3=It Don't Bother Me
TTITLE4=The Poem
TTITLE5=Baby
TTITLE6=When I Get Out
TTITLE7=Never Mind Your Male Hormones
TTITLE8=Put Down Your Picket Sign
TTITLE9=Love On Command
TTITLE10=Shimmy Shimmy Baby-Lou
TTITLE11=I'm The King
TTITLE12=Mona Marie
TTITLE13=Baby, Let's Play Rough
TTITLE14=Knockdown, Drag Out Love Life
TTITLE15=She's Alotta Woman
TTITLE16=Be The Woman
TTITLE17=I Ain't Afraid Of Your Husband
TTITLE18=Dirty Dog
TTITLE19=Black And Blue Christmas
TTITLE20=Don't Want No Trouble
EXTD=The ORIGINAL Master Recordings\nCopyright 1994, 2005 sdb Music
EXTT0=
EXTT1=
EXTT2=
EXTT3=
EXTT4=
EXTT5=
EXTT6=
EXTT7=
EXTT8=
EXTT9=
EXTT10=
EXTT11=
EXTT12=
EXTT13=
EXTT14=
EXTT15=
EXTT16=
EXTT17=
EXTT18=
EXTT19=
EXTT20=
PLAYORDER=
